<svg width="54" height="222" viewBox="0 0 54 222" fill="none" xmlns="http://www.w3.org/2000/svg">
<path d="M40.4708 176C34.0714 186.896 30.5357 192.33 26.9708 192.33C23.4058 192.33 19.8701 186.896 13.5 176C19.8701 186.896 22.9091 192.646 21.1266 195.665C19.3442 198.684 12.7695 199 0 199C13.237 199 19.8117 199.316 21.3019 202.651C22.7045 205.756 19.6656 211.478 13.5 222C19.8993 211.104 23.4351 205.67 27 205.67C30.5649 205.67 34.1007 211.104 40.5 222C33.7208 210.414 30.7403 204.664 33.2532 201.789C35.474 199.259 42.0195 199 54 199C40.5 199 33.9253 198.655 32.6104 195.119C31.4123 191.956 34.4513 186.264 40.4708 176Z" fill="white"/>
</svg>
