<svg width="157" height="157" viewBox="0 0 157 157" fill="none" xmlns="http://www.w3.org/2000/svg">
<path d="M2.28602 89.7529C-3.90773 47.4013 25.404 8.0476 67.7555 1.85385C110.107 -4.3399 149.461 24.9718 155.655 67.3233C161.848 109.675 132.537 149.029 90.1851 155.222C47.8335 161.416 8.47977 132.104 2.28602 89.7529Z" fill="url(#paint0_radial_126_1507)"/>
<path d="M2.28602 89.7529C-3.90773 47.4013 25.404 8.0476 67.7555 1.85385C110.107 -4.3399 149.461 24.9718 155.655 67.3233C161.848 109.675 132.537 149.029 90.1851 155.222C47.8335 161.416 8.47977 132.104 2.28602 89.7529Z" stroke="url(#paint1_radial_126_1507)"/>
<path d="M2.28602 89.7529C-3.90773 47.4013 25.404 8.0476 67.7555 1.85385C110.107 -4.3399 149.461 24.9718 155.655 67.3233C161.848 109.675 132.537 149.029 90.1851 155.222C47.8335 161.416 8.47977 132.104 2.28602 89.7529Z" stroke="url(#paint2_radial_126_1507)"/>
<path d="M2.28602 89.7529C-3.90773 47.4013 25.404 8.0476 67.7555 1.85385C110.107 -4.3399 149.461 24.9718 155.655 67.3233C161.848 109.675 132.537 149.029 90.1851 155.222C47.8335 161.416 8.47977 132.104 2.28602 89.7529Z" stroke="url(#paint3_radial_126_1507)"/>
<defs>
<radialGradient id="paint0_radial_126_1507" cx="0" cy="0" r="1" gradientUnits="userSpaceOnUse" gradientTransform="translate(3.41628 10.7579) rotate(39.6992) scale(233.227 169.41)">
<stop stop-color="white" stop-opacity="0.36"/>
<stop offset="1" stop-color="white" stop-opacity="0"/>
</radialGradient>
<radialGradient id="paint1_radial_126_1507" cx="0" cy="0" r="1" gradientUnits="userSpaceOnUse" gradientTransform="translate(-89.3754 40.4573) rotate(26.7909) scale(179.85 106.243)">
<stop stop-color="white"/>
<stop offset="1" stop-color="white" stop-opacity="0.06"/>
</radialGradient>
<radialGradient id="paint2_radial_126_1507" cx="0" cy="0" r="1" gradientUnits="userSpaceOnUse" gradientTransform="translate(205.16 86.7687) rotate(153.019) scale(130.378 88.3053)">
<stop stop-color="#8470FF"/>
<stop offset="1" stop-color="#865CFF" stop-opacity="0"/>
</radialGradient>
<radialGradient id="paint3_radial_126_1507" cx="0" cy="0" r="1" gradientUnits="userSpaceOnUse" gradientTransform="translate(64.2045 -34.1647) rotate(38.9694) scale(87.1768 62.6469)">
<stop/>
<stop offset="1" stop-color="white" stop-opacity="0"/>
</radialGradient>
</defs>
</svg>
